{
    "asset" : {
        "generator" : "Khronos glTF Blender I/O v3.4.50",
        "version" : "2.0"
    },
    "scene" : 0,
    "scenes" : [
        {
            "name" : "Scene",
            "nodes" : [
                0,
                1
            ]
        }
    ],
    "nodes" : [
        {
            "mesh" : 0,
            "name" : "Cube",
            "rotation" : [
                -0.5188411474227905,
                0.534413754940033,
                0.2131824940443039,
                0.6322649717330933
            ],
            "scale" : [
                0.5124441981315613,
                0.5124441981315613,
                0.5124441981315613
            ],
            "translation" : [
                0.001197212259285152,
                0.6662411689758301,
                0.00031470824615098536
            ]
        },
        {
            "mesh" : 1,
            "name" : "Plane",
            "rotation" : [
                0,
                0.8626084327697754,
                0,
                0.5058722496032715
            ],
            "scale" : [
                -105.8635025024414,
                -105.8635025024414,
                -105.8635025024414
            ]
        }
    ],
    "materials" : [
        {
            "doubleSided" : true,
            "name" : "Dice",
            "pbrMetallicRoughness" : {
                "baseColorFactor" : [
                    0.800000011920929,
                    0.800000011920929,
                    0.800000011920929,
                    1
                ],
                "metallicFactor" : 0.1625615805387497,
                "roughnessFactor" : 0.14384236931800842
            }
        },
        {
            "doubleSided" : true,
            "name" : "Holes",
            "pbrMetallicRoughness" : {
                "baseColorFactor" : [
                    0.8000000715255737,
                    0,
                    0.006636831909418106,
                    1
                ],
                "metallicFactor" : 0,
                "roughnessFactor" : 0.5
            }
        }
    ],
    "meshes" : [
        {
            "name" : "Cube",
            "primitives" : [
                {
                    "attributes" : {
                        "POSITION" : 0,
                        "TEXCOORD_0" : 1,
                        "NORMAL" : 2
                    },
                    "indices" : 3,
                    "material" : 0
                },
                {
                    "attributes" : {
                        "POSITION" : 4,
                        "TEXCOORD_0" : 5,
                        "NORMAL" : 6
                    },
                    "indices" : 7,
                    "material" : 1
                }
            ]
        },
        {
            "name" : "Plane",
            "primitives" : [
                {
                    "attributes" : {
                        "POSITION" : 8,
                        "TEXCOORD_0" : 9,
                        "NORMAL" : 10
                    },
                    "indices" : 11
                }
            ]
        }
    ],
    "accessors" : [
        {
            "bufferView" : 0,
            "componentType" : 5126,
            "count" : 270,
            "max" : [
                1,
                1,
                1
            ],
            "min" : [
                -1,
                -1,
                -1
            ],
            "type" : "VEC3"
        },
        {
            "bufferView" : 1,
            "componentType" : 5126,
            "count" : 270,
            "type" : "VEC2"
        },
        {
            "bufferView" : 2,
            "componentType" : 5126,
            "count" : 270,
            "type" : "VEC3"
        },
        {
            "bufferView" : 3,
            "componentType" : 5123,
            "count" : 1278,
            "type" : "SCALAR"
        },
        {
            "bufferView" : 4,
            "componentType" : 5126,
            "count" : 105,
            "max" : [
                1,
                1,
                1
            ],
            "min" : [
                -1,
                -1,
                -1
            ],
            "type" : "VEC3"
        },
        {
            "bufferView" : 5,
            "componentType" : 5126,
            "count" : 105,
            "type" : "VEC2"
        },
        {
            "bufferView" : 6,
            "componentType" : 5126,
            "count" : 105,
            "type" : "VEC3"
        },
        {
            "bufferView" : 7,
            "componentType" : 5123,
            "count" : 252,
            "type" : "SCALAR"
        },
        {
            "bufferView" : 8,
            "componentType" : 5126,
            "count" : 4,
            "max" : [
                1,
                0,
                1
            ],
            "min" : [
                -1,
                0,
                -1
            ],
            "type" : "VEC3"
        },
        {
            "bufferView" : 9,
            "componentType" : 5126,
            "count" : 4,
            "type" : "VEC2"
        },
        {
            "bufferView" : 10,
            "componentType" : 5126,
            "count" : 4,
            "type" : "VEC3"
        },
        {
            "bufferView" : 11,
            "componentType" : 5123,
            "count" : 6,
            "type" : "SCALAR"
        }
    ],
    "bufferViews" : [
        {
            "buffer" : 0,
            "byteLength" : 3240,
            "byteOffset" : 0,
            "target" : 34962
        },
        {
            "buffer" : 0,
            "byteLength" : 2160,
            "byteOffset" : 3240,
            "target" : 34962
        },
        {
            "buffer" : 0,
            "byteLength" : 3240,
            "byteOffset" : 5400,
            "target" : 34962
        },
        {
            "buffer" : 0,
            "byteLength" : 2556,
            "byteOffset" : 8640,
            "target" : 34963
        },
        {
            "buffer" : 0,
            "byteLength" : 1260,
            "byteOffset" : 11196,
            "target" : 34962
        },
        {
            "buffer" : 0,
            "byteLength" : 840,
            "byteOffset" : 12456,
            "target" : 34962
        },
        {
            "buffer" : 0,
            "byteLength" : 1260,
            "byteOffset" : 13296,
            "target" : 34962
        },
        {
            "buffer" : 0,
            "byteLength" : 504,
            "byteOffset" : 14556,
            "target" : 34963
        },
        {
            "buffer" : 0,
            "byteLength" : 48,
            "byteOffset" : 15060,
            "target" : 34962
        },
        {
            "buffer" : 0,
            "byteLength" : 32,
            "byteOffset" : 15108,
            "target" : 34962
        },
        {
            "buffer" : 0,
            "byteLength" : 48,
            "byteOffset" : 15140,
            "target" : 34962
        },
        {
            "buffer" : 0,
            "byteLength" : 12,
            "byteOffset" : 15188,
            "target" : 34963
        }
    ],
    "buffers" : [
        {
            "byteLength" : 15200,
            "uri" : "data:application/octet-stream;base64,"
        }
    ]
}
